<?xml version="1.0" encoding="utf-8" standalone="no"?>
<!DOCTYPE svg PUBLIC "-//W3C//DTD SVG 1.1//EN"
  "http://www.w3.org/Graphics/SVG/1.1/DTD/svg11.dtd">
<!-- Created with matplotlib (https://matplotlib.org/) -->
<svg height="308.278125pt" version="1.1" viewBox="0 0 324.682812 308.278125" width="324.682812pt" xmlns="http://www.w3.org/2000/svg" xmlns:xlink="http://www.w3.org/1999/xlink">
 <metadata>
  <rdf:RDF xmlns:cc="http://creativecommons.org/ns#" xmlns:dc="http://purl.org/dc/elements/1.1/" xmlns:rdf="http://www.w3.org/1999/02/22-rdf-syntax-ns#">
   <cc:Work>
    <dc:type rdf:resource="http://purl.org/dc/dcmitype/StillImage"/>
    <dc:date>2025-03-23T18:06:49.804599</dc:date>
    <dc:format>image/svg+xml</dc:format>
    <dc:creator>
     <cc:Agent>
      <dc:title>Matplotlib v3.3.4, https://matplotlib.org/</dc:title>
     </cc:Agent>
    </dc:creator>
   </cc:Work>
  </rdf:RDF>
 </metadata>
 <defs>
  <style type="text/css">*{stroke-linecap:butt;stroke-linejoin:round;}</style>
 </defs>
 <g id="figure_1">
  <g id="patch_1">
   <path d="M 0 308.278125 
L 324.682812 308.278125 
L 324.682812 0 
L 0 0 
z
" style="fill:#ffffff;"/>
  </g>
  <g id="axes_1">
   <g id="patch_2">
    <path d="M 38.482813 284.4 
L 317.482813 284.4 
L 317.482813 7.2 
L 38.482813 7.2 
z
" style="fill:#ffffff;"/>
   </g>
   <g id="matplotlib.axis_1">
    <g id="xtick_1">
     <g id="line2d_1">
      <defs>
       <path d="M 0 0 
L 0 3.5 
" id="m383f2acbbe" style="stroke:#000000;stroke-width:0.8;"/>
      </defs>
      <g>
       <use style="stroke:#000000;stroke-width:0.8;" x="51.164631" xlink:href="#m383f2acbbe" y="284.4"/>
      </g>
     </g>
     <g id="text_1">
      <!-- 0 -->
      <g transform="translate(47.983381 298.998438)scale(0.1 -0.1)">
       <defs>
        <path d="M 31.78125 66.40625 
Q 24.171875 66.40625 20.328125 58.90625 
Q 16.5 51.421875 16.5 36.375 
Q 16.5 21.390625 20.328125 13.890625 
Q 24.171875 6.390625 31.78125 6.390625 
Q 39.453125 6.390625 43.28125 13.890625 
Q 47.125 21.390625 47.125 36.375 
Q 47.125 51.421875 43.28125 58.90625 
Q 39.453125 66.40625 31.78125 66.40625 
z
M 31.78125 74.21875 
Q 44.046875 74.21875 50.515625 64.515625 
Q 56.984375 54.828125 56.984375 36.375 
Q 56.984375 17.96875 50.515625 8.265625 
Q 44.046875 -1.421875 31.78125 -1.421875 
Q 19.53125 -1.421875 13.0625 8.265625 
Q 6.59375 17.96875 6.59375 36.375 
Q 6.59375 54.828125 13.0625 64.515625 
Q 19.53125 74.21875 31.78125 74.21875 
z
" id="DejaVuSans-48"/>
       </defs>
       <use xlink:href="#DejaVuSans-48"/>
      </g>
     </g>
    </g>
    <g id="xtick_2">
     <g id="line2d_2">
      <g>
       <use style="stroke:#000000;stroke-width:0.8;" x="110.149832" xlink:href="#m383f2acbbe" y="284.4"/>
      </g>
     </g>
     <g id="text_2">
      <!-- 10 -->
      <g transform="translate(103.787332 298.998438)scale(0.1 -0.1)">
       <defs>
        <path d="M 12.40625 8.296875 
L 28.515625 8.296875 
L 28.515625 63.921875 
L 10.984375 60.40625 
L 10.984375 69.390625 
L 28.421875 72.90625 
L 38.28125 72.90625 
L 38.28125 8.296875 
L 54.390625 8.296875 
L 54.390625 0 
L 12.40625 0 
z
" id="DejaVuSans-49"/>
       </defs>
       <use xlink:href="#DejaVuSans-49"/>
       <use x="63.623047" xlink:href="#DejaVuSans-48"/>
      </g>
     </g>
    </g>
    <g id="xtick_3">
     <g id="line2d_3">
      <g>
       <use style="stroke:#000000;stroke-width:0.8;" x="169.135032" xlink:href="#m383f2acbbe" y="284.4"/>
      </g>
     </g>
     <g id="text_3">
      <!-- 20 -->
      <g transform="translate(162.772532 298.998438)scale(0.1 -0.1)">
       <defs>
        <path d="M 19.1875 8.296875 
L 53.609375 8.296875 
L 53.609375 0 
L 7.328125 0 
L 7.328125 8.296875 
Q 12.9375 14.109375 22.625 23.890625 
Q 32.328125 33.6875 34.8125 36.53125 
Q 39.546875 41.84375 41.421875 45.53125 
Q 43.3125 49.21875 43.3125 52.78125 
Q 43.3125 58.59375 39.234375 62.25 
Q 35.15625 65.921875 28.609375 65.921875 
Q 23.96875 65.921875 18.8125 64.3125 
Q 13.671875 62.703125 7.8125 59.421875 
L 7.8125 69.390625 
Q 13.765625 71.78125 18.9375 73 
Q 24.125 74.21875 28.421875 74.21875 
Q 39.75 74.21875 46.484375 68.546875 
Q 53.21875 62.890625 53.21875 53.421875 
Q 53.21875 48.921875 51.53125 44.890625 
Q 49.859375 40.875 45.40625 35.40625 
Q 44.1875 33.984375 37.640625 27.21875 
Q 31.109375 20.453125 19.1875 8.296875 
z
" id="DejaVuSans-50"/>
       </defs>
       <use xlink:href="#DejaVuSans-50"/>
       <use x="63.623047" xlink:href="#DejaVuSans-48"/>
      </g>
     </g>
    </g>
    <g id="xtick_4">
     <g id="line2d_4">
      <g>
       <use style="stroke:#000000;stroke-width:0.8;" x="228.120233" xlink:href="#m383f2acbbe" y="284.4"/>
      </g>
     </g>
     <g id="text_4">
      <!-- 30 -->
      <g transform="translate(221.757733 298.998438)scale(0.1 -0.1)">
       <defs>
        <path d="M 40.578125 39.3125 
Q 47.65625 37.796875 51.625 33 
Q 55.609375 28.21875 55.609375 21.1875 
Q 55.609375 10.40625 48.1875 4.484375 
Q 40.765625 -1.421875 27.09375 -1.421875 
Q 22.515625 -1.421875 17.65625 -0.515625 
Q 12.796875 0.390625 7.625 2.203125 
L 7.625 11.71875 
Q 11.71875 9.328125 16.59375 8.109375 
Q 21.484375 6.890625 26.8125 6.890625 
Q 36.078125 6.890625 40.9375 10.546875 
Q 45.796875 14.203125 45.796875 21.1875 
Q 45.796875 27.640625 41.28125 31.265625 
Q 36.765625 34.90625 28.71875 34.90625 
L 20.21875 34.90625 
L 20.21875 43.015625 
L 29.109375 43.015625 
Q 36.375 43.015625 40.234375 45.921875 
Q 44.09375 48.828125 44.09375 54.296875 
Q 44.09375 59.90625 40.109375 62.90625 
Q 36.140625 65.921875 28.71875 65.921875 
Q 24.65625 65.921875 20.015625 65.03125 
Q 15.375 64.15625 9.8125 62.3125 
L 9.8125 71.09375 
Q 15.4375 72.65625 20.34375 73.4375 
Q 25.25 74.21875 29.59375 74.21875 
Q 40.828125 74.21875 47.359375 69.109375 
Q 53.90625 64.015625 53.90625 55.328125 
Q 53.90625 49.265625 50.4375 45.09375 
Q 46.96875 40.921875 40.578125 39.3125 
z
" id="DejaVuSans-51"/>
       </defs>
       <use xlink:href="#DejaVuSans-51"/>
       <use x="63.623047" xlink:href="#DejaVuSans-48"/>
      </g>
     </g>
    </g>
    <g id="xtick_5">
     <g id="line2d_5">
      <g>
       <use style="stroke:#000000;stroke-width:0.8;" x="287.105434" xlink:href="#m383f2acbbe" y="284.4"/>
      </g>
     </g>
     <g id="text_5">
      <!-- 40 -->
      <g transform="translate(280.742934 298.998438)scale(0.1 -0.1)">
       <defs>
        <path d="M 37.796875 64.3125 
L 12.890625 25.390625 
L 37.796875 25.390625 
z
M 35.203125 72.90625 
L 47.609375 72.90625 
L 47.609375 25.390625 
L 58.015625 25.390625 
L 58.015625 17.1875 
L 47.609375 17.1875 
L 47.609375 0 
L 37.796875 0 
L 37.796875 17.1875 
L 4.890625 17.1875 
L 4.890625 26.703125 
z
" id="DejaVuSans-52"/>
       </defs>
       <use xlink:href="#DejaVuSans-52"/>
       <use x="63.623047" xlink:href="#DejaVuSans-48"/>
      </g>
     </g>
    </g>
   </g>
   <g id="matplotlib.axis_2">
    <g id="ytick_1">
     <g id="line2d_6">
      <defs>
       <path d="M 0 0 
L -3.5 0 
" id="m74ecd1093a" style="stroke:#000000;stroke-width:0.8;"/>
      </defs>
      <g>
       <use style="stroke:#000000;stroke-width:0.8;" x="38.482813" xlink:href="#m74ecd1093a" y="232.355236"/>
      </g>
     </g>
     <g id="text_6">
      <!-- −0.5 -->
      <g transform="translate(7.2 236.154455)scale(0.1 -0.1)">
       <defs>
        <path d="M 10.59375 35.5 
L 73.1875 35.5 
L 73.1875 27.203125 
L 10.59375 27.203125 
z
" id="DejaVuSans-8722"/>
        <path d="M 10.6875 12.40625 
L 21 12.40625 
L 21 0 
L 10.6875 0 
z
" id="DejaVuSans-46"/>
        <path d="M 10.796875 72.90625 
L 49.515625 72.90625 
L 49.515625 64.59375 
L 19.828125 64.59375 
L 19.828125 46.734375 
Q 21.96875 47.46875 24.109375 47.828125 
Q 26.265625 48.1875 28.421875 48.1875 
Q 40.625 48.1875 47.75 41.5 
Q 54.890625 34.8125 54.890625 23.390625 
Q 54.890625 11.625 47.5625 5.09375 
Q 40.234375 -1.421875 26.90625 -1.421875 
Q 22.3125 -1.421875 17.546875 -0.640625 
Q 12.796875 0.140625 7.71875 1.703125 
L 7.71875 11.625 
Q 12.109375 9.234375 16.796875 8.0625 
Q 21.484375 6.890625 26.703125 6.890625 
Q 35.15625 6.890625 40.078125 11.328125 
Q 45.015625 15.765625 45.015625 23.390625 
Q 45.015625 31 40.078125 35.4375 
Q 35.15625 39.890625 26.703125 39.890625 
Q 22.75 39.890625 18.8125 39.015625 
Q 14.890625 38.140625 10.796875 36.28125 
z
" id="DejaVuSans-53"/>
       </defs>
       <use xlink:href="#DejaVuSans-8722"/>
       <use x="83.789062" xlink:href="#DejaVuSans-48"/>
       <use x="147.412109" xlink:href="#DejaVuSans-46"/>
       <use x="179.199219" xlink:href="#DejaVuSans-53"/>
      </g>
     </g>
    </g>
    <g id="ytick_2">
     <g id="line2d_7">
      <g>
       <use style="stroke:#000000;stroke-width:0.8;" x="38.482813" xlink:href="#m74ecd1093a" y="174.156794"/>
      </g>
     </g>
     <g id="text_7">
      <!-- 0.0 -->
      <g transform="translate(15.579688 177.956013)scale(0.1 -0.1)">
       <use xlink:href="#DejaVuSans-48"/>
       <use x="63.623047" xlink:href="#DejaVuSans-46"/>
       <use x="95.410156" xlink:href="#DejaVuSans-48"/>
      </g>
     </g>
    </g>
    <g id="ytick_3">
     <g id="line2d_8">
      <g>
       <use style="stroke:#000000;stroke-width:0.8;" x="38.482813" xlink:href="#m74ecd1093a" y="115.958352"/>
      </g>
     </g>
     <g id="text_8">
      <!-- 0.5 -->
      <g transform="translate(15.579688 119.75757)scale(0.1 -0.1)">
       <use xlink:href="#DejaVuSans-48"/>
       <use x="63.623047" xlink:href="#DejaVuSans-46"/>
       <use x="95.410156" xlink:href="#DejaVuSans-53"/>
      </g>
     </g>
    </g>
    <g id="ytick_4">
     <g id="line2d_9">
      <g>
       <use style="stroke:#000000;stroke-width:0.8;" x="38.482813" xlink:href="#m74ecd1093a" y="57.759909"/>
      </g>
     </g>
     <g id="text_9">
      <!-- 1.0 -->
      <g transform="translate(15.579688 61.559128)scale(0.1 -0.1)">
       <use xlink:href="#DejaVuSans-49"/>
       <use x="63.623047" xlink:href="#DejaVuSans-46"/>
       <use x="95.410156" xlink:href="#DejaVuSans-48"/>
      </g>
     </g>
    </g>
   </g>
   <g id="line2d_10">
    <path clip-path="url(#p5896b7fc9a)" d="M 51.164631 159.335707 
L 57.063151 164.842052 
L 62.961671 261.194255 
L 68.860191 211.324171 
L 74.758711 118.81707 
L 80.657231 134.057113 
L 86.555751 175.540356 
L 92.454271 36.105206 
L 98.352791 19.8 
L 104.251311 113.795751 
L 110.149832 189.262503 
L 116.048352 108.649149 
L 121.946872 244.359252 
L 127.845392 186.662773 
L 133.743912 246.348318 
L 139.642432 99.660902 
L 145.540952 101.179364 
L 151.439472 212.708591 
L 157.337992 106.506758 
L 163.236512 43.102014 
L 169.135032 222.315782 
L 175.033552 193.668494 
L 180.932073 148.796049 
L 186.830593 109.303806 
L 192.729113 187.190213 
L 198.627633 258.765597 
L 204.526153 149.690176 
L 210.424673 133.2011 
L 216.323193 113.67486 
L 222.221713 219.073379 
L 228.120233 141.137871 
L 234.018753 218.630082 
L 239.917273 204.300885 
L 245.815793 213.800336 
L 251.714314 223.380723 
L 257.612834 201.058019 
L 263.511354 64.574121 
L 269.409874 155.037285 
L 275.308394 101.398716 
L 281.206914 159.579822 
L 287.105434 158.338597 
L 293.003954 19.932109 
L 298.902474 182.07872 
L 304.800994 174.156794 
" style="fill:none;stroke:#000000;stroke-dasharray:5.55,2.4;stroke-dashoffset:0;stroke-width:1.5;"/>
    <defs>
     <path d="M 0 3 
C 0.795609 3 1.55874 2.683901 2.12132 2.12132 
C 2.683901 1.55874 3 0.795609 3 0 
C 3 -0.795609 2.683901 -1.55874 2.12132 -2.12132 
C 1.55874 -2.683901 0.795609 -3 0 -3 
C -0.795609 -3 -1.55874 -2.683901 -2.12132 -2.12132 
C -2.683901 -1.55874 -3 -0.795609 -3 0 
C -3 0.795609 -2.683901 1.55874 -2.12132 2.12132 
C -1.55874 2.683901 -0.795609 3 0 3 
z
" id="md9833d15a5" style="stroke:#000000;"/>
    </defs>
    <g clip-path="url(#p5896b7fc9a)">
     <use style="stroke:#000000;" x="51.164631" xlink:href="#md9833d15a5" y="159.335707"/>
     <use style="stroke:#000000;" x="57.063151" xlink:href="#md9833d15a5" y="164.842052"/>
     <use style="stroke:#000000;" x="62.961671" xlink:href="#md9833d15a5" y="261.194255"/>
     <use style="stroke:#000000;" x="68.860191" xlink:href="#md9833d15a5" y="211.324171"/>
     <use style="stroke:#000000;" x="74.758711" xlink:href="#md9833d15a5" y="118.81707"/>
     <use style="stroke:#000000;" x="80.657231" xlink:href="#md9833d15a5" y="134.057113"/>
     <use style="stroke:#000000;" x="86.555751" xlink:href="#md9833d15a5" y="175.540356"/>
     <use style="stroke:#000000;" x="92.454271" xlink:href="#md9833d15a5" y="36.105206"/>
     <use style="stroke:#000000;" x="98.352791" xlink:href="#md9833d15a5" y="19.8"/>
     <use style="stroke:#000000;" x="104.251311" xlink:href="#md9833d15a5" y="113.795751"/>
     <use style="stroke:#000000;" x="110.149832" xlink:href="#md9833d15a5" y="189.262503"/>
     <use style="stroke:#000000;" x="116.048352" xlink:href="#md9833d15a5" y="108.649149"/>
     <use style="stroke:#000000;" x="121.946872" xlink:href="#md9833d15a5" y="244.359252"/>
     <use style="stroke:#000000;" x="127.845392" xlink:href="#md9833d15a5" y="186.662773"/>
     <use style="stroke:#000000;" x="133.743912" xlink:href="#md9833d15a5" y="246.348318"/>
     <use style="stroke:#000000;" x="139.642432" xlink:href="#md9833d15a5" y="99.660902"/>
     <use style="stroke:#000000;" x="145.540952" xlink:href="#md9833d15a5" y="101.179364"/>
     <use style="stroke:#000000;" x="151.439472" xlink:href="#md9833d15a5" y="212.708591"/>
     <use style="stroke:#000000;" x="157.337992" xlink:href="#md9833d15a5" y="106.506758"/>
     <use style="stroke:#000000;" x="163.236512" xlink:href="#md9833d15a5" y="43.102014"/>
     <use style="stroke:#000000;" x="169.135032" xlink:href="#md9833d15a5" y="222.315782"/>
     <use style="stroke:#000000;" x="175.033552" xlink:href="#md9833d15a5" y="193.668494"/>
     <use style="stroke:#000000;" x="180.932073" xlink:href="#md9833d15a5" y="148.796049"/>
     <use style="stroke:#000000;" x="186.830593" xlink:href="#md9833d15a5" y="109.303806"/>
     <use style="stroke:#000000;" x="192.729113" xlink:href="#md9833d15a5" y="187.190213"/>
     <use style="stroke:#000000;" x="198.627633" xlink:href="#md9833d15a5" y="258.765597"/>
     <use style="stroke:#000000;" x="204.526153" xlink:href="#md9833d15a5" y="149.690176"/>
     <use style="stroke:#000000;" x="210.424673" xlink:href="#md9833d15a5" y="133.2011"/>
     <use style="stroke:#000000;" x="216.323193" xlink:href="#md9833d15a5" y="113.67486"/>
     <use style="stroke:#000000;" x="222.221713" xlink:href="#md9833d15a5" y="219.073379"/>
     <use style="stroke:#000000;" x="228.120233" xlink:href="#md9833d15a5" y="141.137871"/>
     <use style="stroke:#000000;" x="234.018753" xlink:href="#md9833d15a5" y="218.630082"/>
     <use style="stroke:#000000;" x="239.917273" xlink:href="#md9833d15a5" y="204.300885"/>
     <use style="stroke:#000000;" x="245.815793" xlink:href="#md9833d15a5" y="213.800336"/>
     <use style="stroke:#000000;" x="251.714314" xlink:href="#md9833d15a5" y="223.380723"/>
     <use style="stroke:#000000;" x="257.612834" xlink:href="#md9833d15a5" y="201.058019"/>
     <use style="stroke:#000000;" x="263.511354" xlink:href="#md9833d15a5" y="64.574121"/>
     <use style="stroke:#000000;" x="269.409874" xlink:href="#md9833d15a5" y="155.037285"/>
     <use style="stroke:#000000;" x="275.308394" xlink:href="#md9833d15a5" y="101.398716"/>
     <use style="stroke:#000000;" x="281.206914" xlink:href="#md9833d15a5" y="159.579822"/>
     <use style="stroke:#000000;" x="287.105434" xlink:href="#md9833d15a5" y="158.338597"/>
     <use style="stroke:#000000;" x="293.003954" xlink:href="#md9833d15a5" y="19.932109"/>
     <use style="stroke:#000000;" x="298.902474" xlink:href="#md9833d15a5" y="182.07872"/>
     <use style="stroke:#000000;" x="304.800994" xlink:href="#md9833d15a5" y="174.156794"/>
    </g>
   </g>
   <g id="line2d_11">
    <path clip-path="url(#p5896b7fc9a)" d="M 51.164631 213.91123 
L 57.063151 255.210026 
L 62.961671 227.435906 
L 68.860191 113.908101 
L 74.758711 96.603152 
L 80.657231 221.3281 
L 86.555751 214.860289 
L 92.454271 219.651121 
L 98.352791 86.912988 
L 104.251311 85.35716 
L 110.149832 271.181836 
L 116.048352 233.468544 
L 121.946872 271.8 
L 127.845392 216.917505 
L 133.743912 246.789957 
L 139.642432 125.170699 
L 145.540952 173.54982 
L 151.439472 245.376527 
L 157.337992 77.039299 
L 163.236512 134.255624 
L 169.135032 81.10398 
L 175.033552 107.199996 
L 180.932073 151.283562 
L 186.830593 95.352497 
L 192.729113 121.528419 
L 198.627633 206.089691 
L 204.526153 124.869072 
L 210.424673 142.646366 
L 216.323193 89.116918 
L 222.221713 148.72452 
L 228.120233 131.317946 
L 234.018753 154.984922 
L 239.917273 209.896498 
L 245.815793 80.510396 
L 251.714314 138.554209 
L 257.612834 125.549697 
L 263.511354 105.524623 
L 269.409874 160.884125 
L 275.308394 184.680985 
L 281.206914 114.870158 
L 287.105434 86.839483 
L 293.003954 130.116605 
L 298.902474 94.375926 
L 304.800994 175.331455 
" style="fill:none;stroke:#ff0000;stroke-dasharray:5.55,2.4;stroke-dashoffset:0;stroke-width:1.5;"/>
    <defs>
     <path d="M 0 3 
C 0.795609 3 1.55874 2.683901 2.12132 2.12132 
C 2.683901 1.55874 3 0.795609 3 0 
C 3 -0.795609 2.683901 -1.55874 2.12132 -2.12132 
C 1.55874 -2.683901 0.795609 -3 0 -3 
C -0.795609 -3 -1.55874 -2.683901 -2.12132 -2.12132 
C -2.683901 -1.55874 -3 -0.795609 -3 0 
C -3 0.795609 -2.683901 1.55874 -2.12132 2.12132 
C -1.55874 2.683901 -0.795609 3 0 3 
z
" id="m7fbf20a0fb" style="stroke:#ff0000;"/>
    </defs>
    <g clip-path="url(#p5896b7fc9a)">
     <use style="fill:#ff0000;stroke:#ff0000;" x="51.164631" xlink:href="#m7fbf20a0fb" y="213.91123"/>
     <use style="fill:#ff0000;stroke:#ff0000;" x="57.063151" xlink:href="#m7fbf20a0fb" y="255.210026"/>
     <use style="fill:#ff0000;stroke:#ff0000;" x="62.961671" xlink:href="#m7fbf20a0fb" y="227.435906"/>
     <use style="fill:#ff0000;stroke:#ff0000;" x="68.860191" xlink:href="#m7fbf20a0fb" y="113.908101"/>
     <use style="fill:#ff0000;stroke:#ff0000;" x="74.758711" xlink:href="#m7fbf20a0fb" y="96.603152"/>
     <use style="fill:#ff0000;stroke:#ff0000;" x="80.657231" xlink:href="#m7fbf20a0fb" y="221.3281"/>
     <use style="fill:#ff0000;stroke:#ff0000;" x="86.555751" xlink:href="#m7fbf20a0fb" y="214.860289"/>
     <use style="fill:#ff0000;stroke:#ff0000;" x="92.454271" xlink:href="#m7fbf20a0fb" y="219.651121"/>
     <use style="fill:#ff0000;stroke:#ff0000;" x="98.352791" xlink:href="#m7fbf20a0fb" y="86.912988"/>
     <use style="fill:#ff0000;stroke:#ff0000;" x="104.251311" xlink:href="#m7fbf20a0fb" y="85.35716"/>
     <use style="fill:#ff0000;stroke:#ff0000;" x="110.149832" xlink:href="#m7fbf20a0fb" y="271.181836"/>
     <use style="fill:#ff0000;stroke:#ff0000;" x="116.048352" xlink:href="#m7fbf20a0fb" y="233.468544"/>
     <use style="fill:#ff0000;stroke:#ff0000;" x="121.946872" xlink:href="#m7fbf20a0fb" y="271.8"/>
     <use style="fill:#ff0000;stroke:#ff0000;" x="127.845392" xlink:href="#m7fbf20a0fb" y="216.917505"/>
     <use style="fill:#ff0000;stroke:#ff0000;" x="133.743912" xlink:href="#m7fbf20a0fb" y="246.789957"/>
     <use style="fill:#ff0000;stroke:#ff0000;" x="139.642432" xlink:href="#m7fbf20a0fb" y="125.170699"/>
     <use style="fill:#ff0000;stroke:#ff0000;" x="145.540952" xlink:href="#m7fbf20a0fb" y="173.54982"/>
     <use style="fill:#ff0000;stroke:#ff0000;" x="151.439472" xlink:href="#m7fbf20a0fb" y="245.376527"/>
     <use style="fill:#ff0000;stroke:#ff0000;" x="157.337992" xlink:href="#m7fbf20a0fb" y="77.039299"/>
     <use style="fill:#ff0000;stroke:#ff0000;" x="163.236512" xlink:href="#m7fbf20a0fb" y="134.255624"/>
     <use style="fill:#ff0000;stroke:#ff0000;" x="169.135032" xlink:href="#m7fbf20a0fb" y="81.10398"/>
     <use style="fill:#ff0000;stroke:#ff0000;" x="175.033552" xlink:href="#m7fbf20a0fb" y="107.199996"/>
     <use style="fill:#ff0000;stroke:#ff0000;" x="180.932073" xlink:href="#m7fbf20a0fb" y="151.283562"/>
     <use style="fill:#ff0000;stroke:#ff0000;" x="186.830593" xlink:href="#m7fbf20a0fb" y="95.352497"/>
     <use style="fill:#ff0000;stroke:#ff0000;" x="192.729113" xlink:href="#m7fbf20a0fb" y="121.528419"/>
     <use style="fill:#ff0000;stroke:#ff0000;" x="198.627633" xlink:href="#m7fbf20a0fb" y="206.089691"/>
     <use style="fill:#ff0000;stroke:#ff0000;" x="204.526153" xlink:href="#m7fbf20a0fb" y="124.869072"/>
     <use style="fill:#ff0000;stroke:#ff0000;" x="210.424673" xlink:href="#m7fbf20a0fb" y="142.646366"/>
     <use style="fill:#ff0000;stroke:#ff0000;" x="216.323193" xlink:href="#m7fbf20a0fb" y="89.116918"/>
     <use style="fill:#ff0000;stroke:#ff0000;" x="222.221713" xlink:href="#m7fbf20a0fb" y="148.72452"/>
     <use style="fill:#ff0000;stroke:#ff0000;" x="228.120233" xlink:href="#m7fbf20a0fb" y="131.317946"/>
     <use style="fill:#ff0000;stroke:#ff0000;" x="234.018753" xlink:href="#m7fbf20a0fb" y="154.984922"/>
     <use style="fill:#ff0000;stroke:#ff0000;" x="239.917273" xlink:href="#m7fbf20a0fb" y="209.896498"/>
     <use style="fill:#ff0000;stroke:#ff0000;" x="245.815793" xlink:href="#m7fbf20a0fb" y="80.510396"/>
     <use style="fill:#ff0000;stroke:#ff0000;" x="251.714314" xlink:href="#m7fbf20a0fb" y="138.554209"/>
     <use style="fill:#ff0000;stroke:#ff0000;" x="257.612834" xlink:href="#m7fbf20a0fb" y="125.549697"/>
     <use style="fill:#ff0000;stroke:#ff0000;" x="263.511354" xlink:href="#m7fbf20a0fb" y="105.524623"/>
     <use style="fill:#ff0000;stroke:#ff0000;" x="269.409874" xlink:href="#m7fbf20a0fb" y="160.884125"/>
     <use style="fill:#ff0000;stroke:#ff0000;" x="275.308394" xlink:href="#m7fbf20a0fb" y="184.680985"/>
     <use style="fill:#ff0000;stroke:#ff0000;" x="281.206914" xlink:href="#m7fbf20a0fb" y="114.870158"/>
     <use style="fill:#ff0000;stroke:#ff0000;" x="287.105434" xlink:href="#m7fbf20a0fb" y="86.839483"/>
     <use style="fill:#ff0000;stroke:#ff0000;" x="293.003954" xlink:href="#m7fbf20a0fb" y="130.116605"/>
     <use style="fill:#ff0000;stroke:#ff0000;" x="298.902474" xlink:href="#m7fbf20a0fb" y="94.375926"/>
     <use style="fill:#ff0000;stroke:#ff0000;" x="304.800994" xlink:href="#m7fbf20a0fb" y="175.331455"/>
    </g>
   </g>
   <g id="patch_3">
    <path d="M 38.482813 284.4 
L 38.482813 7.2 
" style="fill:none;stroke:#000000;stroke-linecap:square;stroke-linejoin:miter;stroke-width:0.8;"/>
   </g>
   <g id="patch_4">
    <path d="M 317.482813 284.4 
L 317.482813 7.2 
" style="fill:none;stroke:#000000;stroke-linecap:square;stroke-linejoin:miter;stroke-width:0.8;"/>
   </g>
   <g id="patch_5">
    <path d="M 38.482813 284.4 
L 317.482813 284.4 
" style="fill:none;stroke:#000000;stroke-linecap:square;stroke-linejoin:miter;stroke-width:0.8;"/>
   </g>
   <g id="patch_6">
    <path d="M 38.482813 7.2 
L 317.482813 7.2 
" style="fill:none;stroke:#000000;stroke-linecap:square;stroke-linejoin:miter;stroke-width:0.8;"/>
   </g>
  </g>
 </g>
 <defs>
  <clipPath id="p5896b7fc9a">
   <rect height="277.2" width="279" x="38.482813" y="7.2"/>
  </clipPath>
 </defs>
</svg>
