<?xml version="1.0" encoding="utf-8" standalone="no"?>
<!DOCTYPE svg PUBLIC "-//W3C//DTD SVG 1.1//EN"
  "http://www.w3.org/Graphics/SVG/1.1/DTD/svg11.dtd">
<!-- Created with matplotlib (https://matplotlib.org/) -->
<svg height="308.278125pt" version="1.1" viewBox="0 0 331.045312 308.278125" width="331.045312pt" xmlns="http://www.w3.org/2000/svg" xmlns:xlink="http://www.w3.org/1999/xlink">
 <metadata>
  <rdf:RDF xmlns:cc="http://creativecommons.org/ns#" xmlns:dc="http://purl.org/dc/elements/1.1/" xmlns:rdf="http://www.w3.org/1999/02/22-rdf-syntax-ns#">
   <cc:Work>
    <dc:type rdf:resource="http://purl.org/dc/dcmitype/StillImage"/>
    <dc:date>2025-03-23T21:51:16.407241</dc:date>
    <dc:format>image/svg+xml</dc:format>
    <dc:creator>
     <cc:Agent>
      <dc:title>Matplotlib v3.3.4, https://matplotlib.org/</dc:title>
     </cc:Agent>
    </dc:creator>
   </cc:Work>
  </rdf:RDF>
 </metadata>
 <defs>
  <style type="text/css">*{stroke-linecap:butt;stroke-linejoin:round;}</style>
 </defs>
 <g id="figure_1">
  <g id="patch_1">
   <path d="M 0 308.278125 
L 331.045312 308.278125 
L 331.045312 0 
L 0 0 
z
" style="fill:#ffffff;"/>
  </g>
  <g id="axes_1">
   <g id="patch_2">
    <path d="M 44.845313 284.4 
L 323.845312 284.4 
L 323.845312 7.2 
L 44.845313 7.2 
z
" style="fill:#ffffff;"/>
   </g>
   <g id="matplotlib.axis_1">
    <g id="xtick_1">
     <g id="line2d_1">
      <defs>
       <path d="M 0 0 
L 0 3.5 
" id="m358da9327f" style="stroke:#000000;stroke-width:0.8;"/>
      </defs>
      <g>
       <use style="stroke:#000000;stroke-width:0.8;" x="57.527131" xlink:href="#m358da9327f" y="284.4"/>
      </g>
     </g>
     <g id="text_1">
      <!-- 0 -->
      <g transform="translate(54.345881 298.998438)scale(0.1 -0.1)">
       <defs>
        <path d="M 31.78125 66.40625 
Q 24.171875 66.40625 20.328125 58.90625 
Q 16.5 51.421875 16.5 36.375 
Q 16.5 21.390625 20.328125 13.890625 
Q 24.171875 6.390625 31.78125 6.390625 
Q 39.453125 6.390625 43.28125 13.890625 
Q 47.125 21.390625 47.125 36.375 
Q 47.125 51.421875 43.28125 58.90625 
Q 39.453125 66.40625 31.78125 66.40625 
z
M 31.78125 74.21875 
Q 44.046875 74.21875 50.515625 64.515625 
Q 56.984375 54.828125 56.984375 36.375 
Q 56.984375 17.96875 50.515625 8.265625 
Q 44.046875 -1.421875 31.78125 -1.421875 
Q 19.53125 -1.421875 13.0625 8.265625 
Q 6.59375 17.96875 6.59375 36.375 
Q 6.59375 54.828125 13.0625 64.515625 
Q 19.53125 74.21875 31.78125 74.21875 
z
" id="DejaVuSans-48"/>
       </defs>
       <use xlink:href="#DejaVuSans-48"/>
      </g>
     </g>
    </g>
    <g id="xtick_2">
     <g id="line2d_2">
      <g>
       <use style="stroke:#000000;stroke-width:0.8;" x="93.760897" xlink:href="#m358da9327f" y="284.4"/>
      </g>
     </g>
     <g id="text_2">
      <!-- 5 -->
      <g transform="translate(90.579647 298.998438)scale(0.1 -0.1)">
       <defs>
        <path d="M 10.796875 72.90625 
L 49.515625 72.90625 
L 49.515625 64.59375 
L 19.828125 64.59375 
L 19.828125 46.734375 
Q 21.96875 47.46875 24.109375 47.828125 
Q 26.265625 48.1875 28.421875 48.1875 
Q 40.625 48.1875 47.75 41.5 
Q 54.890625 34.8125 54.890625 23.390625 
Q 54.890625 11.625 47.5625 5.09375 
Q 40.234375 -1.421875 26.90625 -1.421875 
Q 22.3125 -1.421875 17.546875 -0.640625 
Q 12.796875 0.140625 7.71875 1.703125 
L 7.71875 11.625 
Q 12.109375 9.234375 16.796875 8.0625 
Q 21.484375 6.890625 26.703125 6.890625 
Q 35.15625 6.890625 40.078125 11.328125 
Q 45.015625 15.765625 45.015625 23.390625 
Q 45.015625 31 40.078125 35.4375 
Q 35.15625 39.890625 26.703125 39.890625 
Q 22.75 39.890625 18.8125 39.015625 
Q 14.890625 38.140625 10.796875 36.28125 
z
" id="DejaVuSans-53"/>
       </defs>
       <use xlink:href="#DejaVuSans-53"/>
      </g>
     </g>
    </g>
    <g id="xtick_3">
     <g id="line2d_3">
      <g>
       <use style="stroke:#000000;stroke-width:0.8;" x="129.994663" xlink:href="#m358da9327f" y="284.4"/>
      </g>
     </g>
     <g id="text_3">
      <!-- 10 -->
      <g transform="translate(123.632163 298.998438)scale(0.1 -0.1)">
       <defs>
        <path d="M 12.40625 8.296875 
L 28.515625 8.296875 
L 28.515625 63.921875 
L 10.984375 60.40625 
L 10.984375 69.390625 
L 28.421875 72.90625 
L 38.28125 72.90625 
L 38.28125 8.296875 
L 54.390625 8.296875 
L 54.390625 0 
L 12.40625 0 
z
" id="DejaVuSans-49"/>
       </defs>
       <use xlink:href="#DejaVuSans-49"/>
       <use x="63.623047" xlink:href="#DejaVuSans-48"/>
      </g>
     </g>
    </g>
    <g id="xtick_4">
     <g id="line2d_4">
      <g>
       <use style="stroke:#000000;stroke-width:0.8;" x="166.228429" xlink:href="#m358da9327f" y="284.4"/>
      </g>
     </g>
     <g id="text_4">
      <!-- 15 -->
      <g transform="translate(159.865929 298.998438)scale(0.1 -0.1)">
       <use xlink:href="#DejaVuSans-49"/>
       <use x="63.623047" xlink:href="#DejaVuSans-53"/>
      </g>
     </g>
    </g>
    <g id="xtick_5">
     <g id="line2d_5">
      <g>
       <use style="stroke:#000000;stroke-width:0.8;" x="202.462196" xlink:href="#m358da9327f" y="284.4"/>
      </g>
     </g>
     <g id="text_5">
      <!-- 20 -->
      <g transform="translate(196.099696 298.998438)scale(0.1 -0.1)">
       <defs>
        <path d="M 19.1875 8.296875 
L 53.609375 8.296875 
L 53.609375 0 
L 7.328125 0 
L 7.328125 8.296875 
Q 12.9375 14.109375 22.625 23.890625 
Q 32.328125 33.6875 34.8125 36.53125 
Q 39.546875 41.84375 41.421875 45.53125 
Q 43.3125 49.21875 43.3125 52.78125 
Q 43.3125 58.59375 39.234375 62.25 
Q 35.15625 65.921875 28.609375 65.921875 
Q 23.96875 65.921875 18.8125 64.3125 
Q 13.671875 62.703125 7.8125 59.421875 
L 7.8125 69.390625 
Q 13.765625 71.78125 18.9375 73 
Q 24.125 74.21875 28.421875 74.21875 
Q 39.75 74.21875 46.484375 68.546875 
Q 53.21875 62.890625 53.21875 53.421875 
Q 53.21875 48.921875 51.53125 44.890625 
Q 49.859375 40.875 45.40625 35.40625 
Q 44.1875 33.984375 37.640625 27.21875 
Q 31.109375 20.453125 19.1875 8.296875 
z
" id="DejaVuSans-50"/>
       </defs>
       <use xlink:href="#DejaVuSans-50"/>
       <use x="63.623047" xlink:href="#DejaVuSans-48"/>
      </g>
     </g>
    </g>
    <g id="xtick_6">
     <g id="line2d_6">
      <g>
       <use style="stroke:#000000;stroke-width:0.8;" x="238.695962" xlink:href="#m358da9327f" y="284.4"/>
      </g>
     </g>
     <g id="text_6">
      <!-- 25 -->
      <g transform="translate(232.333462 298.998438)scale(0.1 -0.1)">
       <use xlink:href="#DejaVuSans-50"/>
       <use x="63.623047" xlink:href="#DejaVuSans-53"/>
      </g>
     </g>
    </g>
    <g id="xtick_7">
     <g id="line2d_7">
      <g>
       <use style="stroke:#000000;stroke-width:0.8;" x="274.929728" xlink:href="#m358da9327f" y="284.4"/>
      </g>
     </g>
     <g id="text_7">
      <!-- 30 -->
      <g transform="translate(268.567228 298.998438)scale(0.1 -0.1)">
       <defs>
        <path d="M 40.578125 39.3125 
Q 47.65625 37.796875 51.625 33 
Q 55.609375 28.21875 55.609375 21.1875 
Q 55.609375 10.40625 48.1875 4.484375 
Q 40.765625 -1.421875 27.09375 -1.421875 
Q 22.515625 -1.421875 17.65625 -0.515625 
Q 12.796875 0.390625 7.625 2.203125 
L 7.625 11.71875 
Q 11.71875 9.328125 16.59375 8.109375 
Q 21.484375 6.890625 26.8125 6.890625 
Q 36.078125 6.890625 40.9375 10.546875 
Q 45.796875 14.203125 45.796875 21.1875 
Q 45.796875 27.640625 41.28125 31.265625 
Q 36.765625 34.90625 28.71875 34.90625 
L 20.21875 34.90625 
L 20.21875 43.015625 
L 29.109375 43.015625 
Q 36.375 43.015625 40.234375 45.921875 
Q 44.09375 48.828125 44.09375 54.296875 
Q 44.09375 59.90625 40.109375 62.90625 
Q 36.140625 65.921875 28.71875 65.921875 
Q 24.65625 65.921875 20.015625 65.03125 
Q 15.375 64.15625 9.8125 62.3125 
L 9.8125 71.09375 
Q 15.4375 72.65625 20.34375 73.4375 
Q 25.25 74.21875 29.59375 74.21875 
Q 40.828125 74.21875 47.359375 69.109375 
Q 53.90625 64.015625 53.90625 55.328125 
Q 53.90625 49.265625 50.4375 45.09375 
Q 46.96875 40.921875 40.578125 39.3125 
z
" id="DejaVuSans-51"/>
       </defs>
       <use xlink:href="#DejaVuSans-51"/>
       <use x="63.623047" xlink:href="#DejaVuSans-48"/>
      </g>
     </g>
    </g>
    <g id="xtick_8">
     <g id="line2d_8">
      <g>
       <use style="stroke:#000000;stroke-width:0.8;" x="311.163494" xlink:href="#m358da9327f" y="284.4"/>
      </g>
     </g>
     <g id="text_8">
      <!-- 35 -->
      <g transform="translate(304.800994 298.998438)scale(0.1 -0.1)">
       <use xlink:href="#DejaVuSans-51"/>
       <use x="63.623047" xlink:href="#DejaVuSans-53"/>
      </g>
     </g>
    </g>
   </g>
   <g id="matplotlib.axis_2">
    <g id="ytick_1">
     <g id="line2d_9">
      <defs>
       <path d="M 0 0 
L -3.5 0 
" id="m2346511eae" style="stroke:#000000;stroke-width:0.8;"/>
      </defs>
      <g>
       <use style="stroke:#000000;stroke-width:0.8;" x="44.845313" xlink:href="#m2346511eae" y="259.821727"/>
      </g>
     </g>
     <g id="text_9">
      <!-- −0.75 -->
      <g transform="translate(7.2 263.620945)scale(0.1 -0.1)">
       <defs>
        <path d="M 10.59375 35.5 
L 73.1875 35.5 
L 73.1875 27.203125 
L 10.59375 27.203125 
z
" id="DejaVuSans-8722"/>
        <path d="M 10.6875 12.40625 
L 21 12.40625 
L 21 0 
L 10.6875 0 
z
" id="DejaVuSans-46"/>
        <path d="M 8.203125 72.90625 
L 55.078125 72.90625 
L 55.078125 68.703125 
L 28.609375 0 
L 18.3125 0 
L 43.21875 64.59375 
L 8.203125 64.59375 
z
" id="DejaVuSans-55"/>
       </defs>
       <use xlink:href="#DejaVuSans-8722"/>
       <use x="83.789062" xlink:href="#DejaVuSans-48"/>
       <use x="147.412109" xlink:href="#DejaVuSans-46"/>
       <use x="179.199219" xlink:href="#DejaVuSans-55"/>
       <use x="242.822266" xlink:href="#DejaVuSans-53"/>
      </g>
     </g>
    </g>
    <g id="ytick_2">
     <g id="line2d_10">
      <g>
       <use style="stroke:#000000;stroke-width:0.8;" x="44.845313" xlink:href="#m2346511eae" y="222.028713"/>
      </g>
     </g>
     <g id="text_10">
      <!-- −0.50 -->
      <g transform="translate(7.2 225.827932)scale(0.1 -0.1)">
       <use xlink:href="#DejaVuSans-8722"/>
       <use x="83.789062" xlink:href="#DejaVuSans-48"/>
       <use x="147.412109" xlink:href="#DejaVuSans-46"/>
       <use x="179.199219" xlink:href="#DejaVuSans-53"/>
       <use x="242.822266" xlink:href="#DejaVuSans-48"/>
      </g>
     </g>
    </g>
    <g id="ytick_3">
     <g id="line2d_11">
      <g>
       <use style="stroke:#000000;stroke-width:0.8;" x="44.845313" xlink:href="#m2346511eae" y="184.2357"/>
      </g>
     </g>
     <g id="text_11">
      <!-- −0.25 -->
      <g transform="translate(7.2 188.034919)scale(0.1 -0.1)">
       <use xlink:href="#DejaVuSans-8722"/>
       <use x="83.789062" xlink:href="#DejaVuSans-48"/>
       <use x="147.412109" xlink:href="#DejaVuSans-46"/>
       <use x="179.199219" xlink:href="#DejaVuSans-50"/>
       <use x="242.822266" xlink:href="#DejaVuSans-53"/>
      </g>
     </g>
    </g>
    <g id="ytick_4">
     <g id="line2d_12">
      <g>
       <use style="stroke:#000000;stroke-width:0.8;" x="44.845313" xlink:href="#m2346511eae" y="146.442687"/>
      </g>
     </g>
     <g id="text_12">
      <!-- 0.00 -->
      <g transform="translate(15.579688 150.241906)scale(0.1 -0.1)">
       <use xlink:href="#DejaVuSans-48"/>
       <use x="63.623047" xlink:href="#DejaVuSans-46"/>
       <use x="95.410156" xlink:href="#DejaVuSans-48"/>
       <use x="159.033203" xlink:href="#DejaVuSans-48"/>
      </g>
     </g>
    </g>
    <g id="ytick_5">
     <g id="line2d_13">
      <g>
       <use style="stroke:#000000;stroke-width:0.8;" x="44.845313" xlink:href="#m2346511eae" y="108.649674"/>
      </g>
     </g>
     <g id="text_13">
      <!-- 0.25 -->
      <g transform="translate(15.579688 112.448892)scale(0.1 -0.1)">
       <use xlink:href="#DejaVuSans-48"/>
       <use x="63.623047" xlink:href="#DejaVuSans-46"/>
       <use x="95.410156" xlink:href="#DejaVuSans-50"/>
       <use x="159.033203" xlink:href="#DejaVuSans-53"/>
      </g>
     </g>
    </g>
    <g id="ytick_6">
     <g id="line2d_14">
      <g>
       <use style="stroke:#000000;stroke-width:0.8;" x="44.845313" xlink:href="#m2346511eae" y="70.856661"/>
      </g>
     </g>
     <g id="text_14">
      <!-- 0.50 -->
      <g transform="translate(15.579688 74.655879)scale(0.1 -0.1)">
       <use xlink:href="#DejaVuSans-48"/>
       <use x="63.623047" xlink:href="#DejaVuSans-46"/>
       <use x="95.410156" xlink:href="#DejaVuSans-53"/>
       <use x="159.033203" xlink:href="#DejaVuSans-48"/>
      </g>
     </g>
    </g>
    <g id="ytick_7">
     <g id="line2d_15">
      <g>
       <use style="stroke:#000000;stroke-width:0.8;" x="44.845313" xlink:href="#m2346511eae" y="33.063647"/>
      </g>
     </g>
     <g id="text_15">
      <!-- 0.75 -->
      <g transform="translate(15.579688 36.862866)scale(0.1 -0.1)">
       <use xlink:href="#DejaVuSans-48"/>
       <use x="63.623047" xlink:href="#DejaVuSans-46"/>
       <use x="95.410156" xlink:href="#DejaVuSans-55"/>
       <use x="159.033203" xlink:href="#DejaVuSans-53"/>
      </g>
     </g>
    </g>
   </g>
   <g id="line2d_16">
    <path clip-path="url(#pd4f115be04)" d="M 57.527131 166.297951 
L 64.773884 177.022256 
L 72.020637 234.358317 
L 79.26739 107.653606 
L 86.514144 146.201374 
L 93.760897 121.147246 
L 101.00765 110.906361 
L 108.254403 19.8 
L 115.501157 116.91658 
L 122.74791 160.231842 
L 129.994663 81.988424 
L 137.241416 271.8 
L 144.48817 155.771214 
L 151.734923 139.652149 
L 158.981676 65.649793 
L 166.228429 44.893535 
L 173.475183 266.567309 
L 180.721936 110.239983 
L 187.968689 84.0412 
L 195.215442 174.576084 
L 202.462196 133.192307 
L 209.708949 145.207166 
L 216.955702 166.591361 
L 224.202455 222.138075 
L 231.449209 260.114849 
L 238.695962 134.769464 
L 245.942715 147.260614 
L 253.189468 94.60173 
L 260.436222 118.753238 
L 267.682975 80.339528 
L 274.929728 170.609141 
L 282.176481 241.299636 
L 289.423235 179.537578 
L 296.669988 142.610905 
L 303.916741 155.808498 
L 311.163494 143.071338 
" style="fill:none;stroke:#000000;stroke-dasharray:5.55,2.4;stroke-dashoffset:0;stroke-width:1.5;"/>
    <defs>
     <path d="M 0 3 
C 0.795609 3 1.55874 2.683901 2.12132 2.12132 
C 2.683901 1.55874 3 0.795609 3 0 
C 3 -0.795609 2.683901 -1.55874 2.12132 -2.12132 
C 1.55874 -2.683901 0.795609 -3 0 -3 
C -0.795609 -3 -1.55874 -2.683901 -2.12132 -2.12132 
C -2.683901 -1.55874 -3 -0.795609 -3 0 
C -3 0.795609 -2.683901 1.55874 -2.12132 2.12132 
C -1.55874 2.683901 -0.795609 3 0 3 
z
" id="mdc0b781fcc" style="stroke:#000000;"/>
    </defs>
    <g clip-path="url(#pd4f115be04)">
     <use style="stroke:#000000;" x="57.527131" xlink:href="#mdc0b781fcc" y="166.297951"/>
     <use style="stroke:#000000;" x="64.773884" xlink:href="#mdc0b781fcc" y="177.022256"/>
     <use style="stroke:#000000;" x="72.020637" xlink:href="#mdc0b781fcc" y="234.358317"/>
     <use style="stroke:#000000;" x="79.26739" xlink:href="#mdc0b781fcc" y="107.653606"/>
     <use style="stroke:#000000;" x="86.514144" xlink:href="#mdc0b781fcc" y="146.201374"/>
     <use style="stroke:#000000;" x="93.760897" xlink:href="#mdc0b781fcc" y="121.147246"/>
     <use style="stroke:#000000;" x="101.00765" xlink:href="#mdc0b781fcc" y="110.906361"/>
     <use style="stroke:#000000;" x="108.254403" xlink:href="#mdc0b781fcc" y="19.8"/>
     <use style="stroke:#000000;" x="115.501157" xlink:href="#mdc0b781fcc" y="116.91658"/>
     <use style="stroke:#000000;" x="122.74791" xlink:href="#mdc0b781fcc" y="160.231842"/>
     <use style="stroke:#000000;" x="129.994663" xlink:href="#mdc0b781fcc" y="81.988424"/>
     <use style="stroke:#000000;" x="137.241416" xlink:href="#mdc0b781fcc" y="271.8"/>
     <use style="stroke:#000000;" x="144.48817" xlink:href="#mdc0b781fcc" y="155.771214"/>
     <use style="stroke:#000000;" x="151.734923" xlink:href="#mdc0b781fcc" y="139.652149"/>
     <use style="stroke:#000000;" x="158.981676" xlink:href="#mdc0b781fcc" y="65.649793"/>
     <use style="stroke:#000000;" x="166.228429" xlink:href="#mdc0b781fcc" y="44.893535"/>
     <use style="stroke:#000000;" x="173.475183" xlink:href="#mdc0b781fcc" y="266.567309"/>
     <use style="stroke:#000000;" x="180.721936" xlink:href="#mdc0b781fcc" y="110.239983"/>
     <use style="stroke:#000000;" x="187.968689" xlink:href="#mdc0b781fcc" y="84.0412"/>
     <use style="stroke:#000000;" x="195.215442" xlink:href="#mdc0b781fcc" y="174.576084"/>
     <use style="stroke:#000000;" x="202.462196" xlink:href="#mdc0b781fcc" y="133.192307"/>
     <use style="stroke:#000000;" x="209.708949" xlink:href="#mdc0b781fcc" y="145.207166"/>
     <use style="stroke:#000000;" x="216.955702" xlink:href="#mdc0b781fcc" y="166.591361"/>
     <use style="stroke:#000000;" x="224.202455" xlink:href="#mdc0b781fcc" y="222.138075"/>
     <use style="stroke:#000000;" x="231.449209" xlink:href="#mdc0b781fcc" y="260.114849"/>
     <use style="stroke:#000000;" x="238.695962" xlink:href="#mdc0b781fcc" y="134.769464"/>
     <use style="stroke:#000000;" x="245.942715" xlink:href="#mdc0b781fcc" y="147.260614"/>
     <use style="stroke:#000000;" x="253.189468" xlink:href="#mdc0b781fcc" y="94.60173"/>
     <use style="stroke:#000000;" x="260.436222" xlink:href="#mdc0b781fcc" y="118.753238"/>
     <use style="stroke:#000000;" x="267.682975" xlink:href="#mdc0b781fcc" y="80.339528"/>
     <use style="stroke:#000000;" x="274.929728" xlink:href="#mdc0b781fcc" y="170.609141"/>
     <use style="stroke:#000000;" x="282.176481" xlink:href="#mdc0b781fcc" y="241.299636"/>
     <use style="stroke:#000000;" x="289.423235" xlink:href="#mdc0b781fcc" y="179.537578"/>
     <use style="stroke:#000000;" x="296.669988" xlink:href="#mdc0b781fcc" y="142.610905"/>
     <use style="stroke:#000000;" x="303.916741" xlink:href="#mdc0b781fcc" y="155.808498"/>
     <use style="stroke:#000000;" x="311.163494" xlink:href="#mdc0b781fcc" y="143.071338"/>
    </g>
   </g>
   <g id="line2d_17">
    <path clip-path="url(#pd4f115be04)" d="M 57.527131 116.101431 
L 64.773884 138.637733 
L 72.020637 124.762792 
L 79.26739 101.217866 
L 86.514144 134.78435 
L 93.760897 125.823605 
L 101.00765 129.343109 
L 108.254403 84.792126 
L 115.501157 125.841032 
L 122.74791 125.836725 
L 129.994663 128.902493 
L 137.241416 138.637841 
L 144.48817 139.256253 
L 151.734923 117.48657 
L 158.981676 116.101431 
L 166.228429 125.836725 
L 173.475183 157.1044 
L 180.721936 84.792126 
L 187.968689 116.758301 
L 195.215442 144.303427 
L 202.462196 101.217866 
L 209.708949 155.502918 
L 216.955702 126.277287 
L 224.202455 84.793387 
L 231.449209 101.658428 
L 238.695962 110.953159 
L 245.942715 128.898294 
L 253.189468 140.826685 
L 260.436222 125.836725 
L 267.682975 84.792126 
L 274.929728 157.1044 
L 282.176481 172.094363 
L 289.423235 110.953159 
L 296.669988 138.637841 
L 303.916741 155.504143 
L 311.163494 84.792342 
" style="fill:none;stroke:#ff0000;stroke-dasharray:5.55,2.4;stroke-dashoffset:0;stroke-width:1.5;"/>
    <defs>
     <path d="M 0 3 
C 0.795609 3 1.55874 2.683901 2.12132 2.12132 
C 2.683901 1.55874 3 0.795609 3 0 
C 3 -0.795609 2.683901 -1.55874 2.12132 -2.12132 
C 1.55874 -2.683901 0.795609 -3 0 -3 
C -0.795609 -3 -1.55874 -2.683901 -2.12132 -2.12132 
C -2.683901 -1.55874 -3 -0.795609 -3 0 
C -3 0.795609 -2.683901 1.55874 -2.12132 2.12132 
C -1.55874 2.683901 -0.795609 3 0 3 
z
" id="mc609323e25" style="stroke:#ff0000;"/>
    </defs>
    <g clip-path="url(#pd4f115be04)">
     <use style="fill:#ff0000;stroke:#ff0000;" x="57.527131" xlink:href="#mc609323e25" y="116.101431"/>
     <use style="fill:#ff0000;stroke:#ff0000;" x="64.773884" xlink:href="#mc609323e25" y="138.637733"/>
     <use style="fill:#ff0000;stroke:#ff0000;" x="72.020637" xlink:href="#mc609323e25" y="124.762792"/>
     <use style="fill:#ff0000;stroke:#ff0000;" x="79.26739" xlink:href="#mc609323e25" y="101.217866"/>
     <use style="fill:#ff0000;stroke:#ff0000;" x="86.514144" xlink:href="#mc609323e25" y="134.78435"/>
     <use style="fill:#ff0000;stroke:#ff0000;" x="93.760897" xlink:href="#mc609323e25" y="125.823605"/>
     <use style="fill:#ff0000;stroke:#ff0000;" x="101.00765" xlink:href="#mc609323e25" y="129.343109"/>
     <use style="fill:#ff0000;stroke:#ff0000;" x="108.254403" xlink:href="#mc609323e25" y="84.792126"/>
     <use style="fill:#ff0000;stroke:#ff0000;" x="115.501157" xlink:href="#mc609323e25" y="125.841032"/>
     <use style="fill:#ff0000;stroke:#ff0000;" x="122.74791" xlink:href="#mc609323e25" y="125.836725"/>
     <use style="fill:#ff0000;stroke:#ff0000;" x="129.994663" xlink:href="#mc609323e25" y="128.902493"/>
     <use style="fill:#ff0000;stroke:#ff0000;" x="137.241416" xlink:href="#mc609323e25" y="138.637841"/>
     <use style="fill:#ff0000;stroke:#ff0000;" x="144.48817" xlink:href="#mc609323e25" y="139.256253"/>
     <use style="fill:#ff0000;stroke:#ff0000;" x="151.734923" xlink:href="#mc609323e25" y="117.48657"/>
     <use style="fill:#ff0000;stroke:#ff0000;" x="158.981676" xlink:href="#mc609323e25" y="116.101431"/>
     <use style="fill:#ff0000;stroke:#ff0000;" x="166.228429" xlink:href="#mc609323e25" y="125.836725"/>
     <use style="fill:#ff0000;stroke:#ff0000;" x="173.475183" xlink:href="#mc609323e25" y="157.1044"/>
     <use style="fill:#ff0000;stroke:#ff0000;" x="180.721936" xlink:href="#mc609323e25" y="84.792126"/>
     <use style="fill:#ff0000;stroke:#ff0000;" x="187.968689" xlink:href="#mc609323e25" y="116.758301"/>
     <use style="fill:#ff0000;stroke:#ff0000;" x="195.215442" xlink:href="#mc609323e25" y="144.303427"/>
     <use style="fill:#ff0000;stroke:#ff0000;" x="202.462196" xlink:href="#mc609323e25" y="101.217866"/>
     <use style="fill:#ff0000;stroke:#ff0000;" x="209.708949" xlink:href="#mc609323e25" y="155.502918"/>
     <use style="fill:#ff0000;stroke:#ff0000;" x="216.955702" xlink:href="#mc609323e25" y="126.277287"/>
     <use style="fill:#ff0000;stroke:#ff0000;" x="224.202455" xlink:href="#mc609323e25" y="84.793387"/>
     <use style="fill:#ff0000;stroke:#ff0000;" x="231.449209" xlink:href="#mc609323e25" y="101.658428"/>
     <use style="fill:#ff0000;stroke:#ff0000;" x="238.695962" xlink:href="#mc609323e25" y="110.953159"/>
     <use style="fill:#ff0000;stroke:#ff0000;" x="245.942715" xlink:href="#mc609323e25" y="128.898294"/>
     <use style="fill:#ff0000;stroke:#ff0000;" x="253.189468" xlink:href="#mc609323e25" y="140.826685"/>
     <use style="fill:#ff0000;stroke:#ff0000;" x="260.436222" xlink:href="#mc609323e25" y="125.836725"/>
     <use style="fill:#ff0000;stroke:#ff0000;" x="267.682975" xlink:href="#mc609323e25" y="84.792126"/>
     <use style="fill:#ff0000;stroke:#ff0000;" x="274.929728" xlink:href="#mc609323e25" y="157.1044"/>
     <use style="fill:#ff0000;stroke:#ff0000;" x="282.176481" xlink:href="#mc609323e25" y="172.094363"/>
     <use style="fill:#ff0000;stroke:#ff0000;" x="289.423235" xlink:href="#mc609323e25" y="110.953159"/>
     <use style="fill:#ff0000;stroke:#ff0000;" x="296.669988" xlink:href="#mc609323e25" y="138.637841"/>
     <use style="fill:#ff0000;stroke:#ff0000;" x="303.916741" xlink:href="#mc609323e25" y="155.504143"/>
     <use style="fill:#ff0000;stroke:#ff0000;" x="311.163494" xlink:href="#mc609323e25" y="84.792342"/>
    </g>
   </g>
   <g id="patch_3">
    <path d="M 44.845313 284.4 
L 44.845313 7.2 
" style="fill:none;stroke:#000000;stroke-linecap:square;stroke-linejoin:miter;stroke-width:0.8;"/>
   </g>
   <g id="patch_4">
    <path d="M 323.845312 284.4 
L 323.845312 7.2 
" style="fill:none;stroke:#000000;stroke-linecap:square;stroke-linejoin:miter;stroke-width:0.8;"/>
   </g>
   <g id="patch_5">
    <path d="M 44.845313 284.4 
L 323.845312 284.4 
" style="fill:none;stroke:#000000;stroke-linecap:square;stroke-linejoin:miter;stroke-width:0.8;"/>
   </g>
   <g id="patch_6">
    <path d="M 44.845313 7.2 
L 323.845312 7.2 
" style="fill:none;stroke:#000000;stroke-linecap:square;stroke-linejoin:miter;stroke-width:0.8;"/>
   </g>
  </g>
 </g>
 <defs>
  <clipPath id="pd4f115be04">
   <rect height="277.2" width="279" x="44.845313" y="7.2"/>
  </clipPath>
 </defs>
</svg>
